<svg xmlns="http://www.w3.org/2000/svg" xmlns:xlink="http://www.w3.org/1999/xlink" width="836" height="164" viewBox="0 0 836 164" fill="none"><g opacity="1"  transform="translate(0 0)"><mask id="bg-mask-0" fill="white"><use transform="translate(0 0)" xlink:href="#path_0"></use></mask><g mask="url(#bg-mask-0)" ><path id="文本 1" fill-rule="evenodd" style="fill:#FFFFFF" opacity="1" d="M22.3312 130.329L22.3312 53.6729L37.6623 53.6729L37.6623 114.997L68.3246 114.997L68.3246 130.329L22.3312 130.329ZM88.7662 130.329L88.7662 53.6729L134.76 53.6729L134.76 69.0041L104.097 69.0041L104.097 84.3352L134.76 84.3352L134.76 99.6664L104.097 99.6664L104.097 114.997L134.76 114.997L134.76 130.329L88.7662 130.329ZM155.201 130.329L155.201 53.6729L201.195 53.6729L201.195 69.0041L216.526 69.0041L216.526 114.997L201.195 114.997L201.195 130.329L155.201 130.329ZM170.532 114.997L200.581 114.997L200.581 69.0041L170.532 69.0041L170.532 114.997ZM236.967 99.6664L236.967 84.3352L282.961 84.3352L282.961 99.6664L236.967 99.6664ZM303.402 130.329L303.402 53.6729L349.396 53.6729L349.396 69.0041L364.727 69.0041L364.727 114.997L349.396 114.997L349.396 130.329L303.402 130.329ZM318.734 84.3352L348.783 84.3352L348.783 69.0041L318.734 69.0041L318.734 84.3352ZM318.734 114.997L348.783 114.997L348.783 99.6664L318.734 99.6664L318.734 114.997ZM400.5 130.329L400.5 114.997L385.169 114.997L385.169 53.6729L400.5 53.6729L400.5 114.997L431.162 114.997L431.162 130.329L400.5 130.329ZM431.162 114.997L431.162 53.6729L446.493 53.6729L446.493 114.997L431.162 114.997ZM482.266 69.0041L482.266 53.6729L528.259 53.6729L528.259 69.0041L482.266 69.0041ZM466.935 114.997L466.935 69.0041L482.266 69.0041L482.266 114.997L466.935 114.997ZM512.928 114.997L512.928 99.6664L497.597 99.6664L497.597 84.3352L528.259 84.3352L528.259 114.997L512.928 114.997ZM482.266 130.329L482.266 114.997L512.928 114.997L512.928 130.329L482.266 130.329ZM548.701 130.329L548.701 114.997L564.032 114.997L564.032 130.329L548.701 130.329ZM630.467 84.3352L630.467 69.0041L599.805 69.0041L599.805 53.6729L630.467 53.6729L630.467 69.0041L645.798 69.0041L645.798 84.3352L630.467 84.3352ZM599.805 130.329L599.805 114.997L584.474 114.997L584.474 69.0041L599.805 69.0041L599.805 114.997L630.467 114.997L630.467 130.329L599.805 130.329ZM630.467 114.997L630.467 99.6664L645.798 99.6664L645.798 114.997L630.467 114.997ZM681.571 130.329L681.571 114.997L666.24 114.997L666.24 69.0041L681.571 69.0041L681.571 53.6729L712.233 53.6729L712.233 69.0041L727.564 69.0041L727.564 114.997L712.233 114.997L712.233 130.329L681.571 130.329ZM681.571 114.384L712.233 114.384L712.233 69.6173L681.571 69.6173L681.571 114.384ZM748.006 130.329L748.006 53.6729L763.337 53.6729L763.337 69.0041L778.668 69.0041L778.668 84.3352L793.999 84.3352L793.999 99.6664L778.668 99.6664L778.668 84.3352L763.337 84.3352L763.337 130.329L748.006 130.329ZM809.331 130.329L809.331 84.3352L793.999 84.3352L793.999 69.0041L809.331 69.0041L809.331 53.6729L824.662 53.6729L824.662 130.329L809.331 130.329Z"></path></g></g><defs><rect id="path_0" x="0" y="0" width="836" height="164" rx="0" ry="0"/></defs></svg>